<svg width="64" height="64" viewBox="0 0 64 64" fill="#211A36" xmlns="http://www.w3.org/2000/svg">
<path d="M32 24C27.664 24 24 27.664 24 32C24 36.336 27.664 40 32 40C36.336 40 40 36.336 40 32C40 27.664 36.336 24 32 24Z" fill="#211A36"/>
<path d="M53.3335 13.3333H46.4375L39.2188 6.11465C38.9716 5.86654 38.6778 5.66977 38.3542 5.53567C38.0306 5.40158 37.6837 5.33281 37.3335 5.33332H26.6668C26.3166 5.33281 25.9697 5.40158 25.6461 5.53567C25.3226 5.66977 25.0287 5.86654 24.7815 6.11465L17.5628 13.3333H10.6668C7.7255 13.3333 5.3335 15.7253 5.3335 18.6666V48C5.3335 50.9413 7.7255 53.3333 10.6668 53.3333H53.3335C56.2748 53.3333 58.6668 50.9413 58.6668 48V18.6666C58.6668 15.7253 56.2748 13.3333 53.3335 13.3333ZM32.0002 45.3333C24.7735 45.3333 18.6668 39.2266 18.6668 32C18.6668 24.7733 24.7735 18.6666 32.0002 18.6666C39.2268 18.6666 45.3335 24.7733 45.3335 32C45.3335 39.2266 39.2268 45.3333 32.0002 45.3333Z" fill="#211A36"/>
</svg>
