<svg width="64" height="64" viewBox="0 0 64 64" fill="#211A36" xmlns="http://www.w3.org/2000/svg">
<path d="M10.6668 53.3333H42.3442L34.1228 45.112C33.4227 45.245 32.7127 45.3191 32.0002 45.3333C24.7735 45.3333 18.6668 39.2266 18.6668 32C18.6668 31.2773 18.7708 30.5733 18.8882 29.8773L5.7175 16.7066C5.4775 17.3146 5.3335 17.9733 5.3335 18.6666V48C5.3335 50.9413 7.7255 53.3333 10.6668 53.3333ZM53.3335 13.3333H46.4375L39.2188 6.11465C38.9716 5.86654 38.6778 5.66977 38.3542 5.53567C38.0306 5.40158 37.6837 5.33281 37.3335 5.33332H26.6668C26.3166 5.33281 25.9697 5.40158 25.6461 5.53567C25.3226 5.66977 25.0287 5.86654 24.7815 6.11465L17.5628 13.3333H17.1042L9.8855 6.11465L6.11483 9.88532L54.1148 57.8853L57.8855 54.1147L56.2162 52.4453C56.9652 51.9699 57.5824 51.3134 58.0107 50.5365C58.4391 49.7595 58.6647 48.8872 58.6668 48V18.6666C58.6668 15.7253 56.2748 13.3333 53.3335 13.3333ZM39.1682 35.3973C39.7049 34.3446 39.9898 33.1816 40.0002 32C40.0002 27.664 36.3362 24 32.0002 24C30.7842 24 29.6428 24.32 28.6028 24.832L24.7095 20.9386C26.8578 19.4693 29.3974 18.6778 32.0002 18.6666C39.2268 18.6666 45.3335 24.7733 45.3335 32C45.3223 34.6027 44.5309 37.1423 43.0615 39.2907L39.1682 35.3973V35.3973Z" fill="#211A36"/>
</svg>
