<svg width="64" height="64" viewBox="0 0 64 64" fill="#211A36" xmlns="http://www.w3.org/2000/svg">
<path d="M41.5468 34C42.2698 32.5497 42.6528 30.9537 42.6668 29.3333V16C42.6374 13.3658 41.6342 10.8358 39.8506 8.89716C38.0669 6.95854 35.629 5.74852 33.0064 5.50017C30.3839 5.25182 27.7622 5.98271 25.6463 7.55206C23.5305 9.12141 22.0702 11.4182 21.5468 14M50.6668 29.3333C50.6668 28.6261 50.3859 27.9478 49.8858 27.4477C49.3857 26.9476 48.7074 26.6666 48.0002 26.6666C47.2929 26.6666 46.6146 26.9476 46.1145 27.4477C45.6145 27.9478 45.3335 28.6261 45.3335 29.3333C45.3257 31.6631 44.6901 33.9477 43.4935 35.9466L47.4135 40C49.5595 36.859 50.6946 33.1373 50.6668 29.3333V29.3333ZM32.0002 40H32.4268L21.3335 28.88V29.3333C21.3335 32.1623 22.4573 34.8754 24.4577 36.8758C26.4581 38.8762 29.1712 40 32.0002 40ZM55.2268 51.44L12.5602 8.77331C12.3115 8.52467 12.0164 8.32745 11.6915 8.19288C11.3666 8.05832 11.0185 7.98907 10.6668 7.98907C10.3152 7.98907 9.96703 8.05832 9.64217 8.19288C9.31731 8.32745 9.02214 8.52467 8.7735 8.77331C8.27136 9.27545 7.98926 9.95651 7.98926 10.6666C7.98926 11.3768 8.27136 12.0578 8.7735 12.56L51.4402 55.2266C51.6881 55.4766 51.983 55.675 52.308 55.8104C52.6329 55.9457 52.9815 56.0154 53.3335 56.0154C53.6855 56.0154 54.0341 55.9457 54.359 55.8104C54.684 55.675 54.9789 55.4766 55.2268 55.2266C55.4768 54.9787 55.6752 54.6838 55.8105 54.3588C55.9459 54.0339 56.0156 53.6853 56.0156 53.3333C56.0156 52.9813 55.9459 52.6327 55.8105 52.3078C55.6752 51.9828 55.4768 51.6879 55.2268 51.44V51.44Z" fill="#211A36"/>
<path d="M40.0002 53.3334H34.6668V47.7867C36.1759 47.5766 37.6535 47.1826 39.0668 46.6134L34.8002 42.3467C33.8823 42.5613 32.9427 42.6687 32.0002 42.6667C28.4639 42.6667 25.0726 41.2619 22.5721 38.7614C20.0716 36.261 18.6668 32.8696 18.6668 29.3334C18.6668 28.6261 18.3859 27.9478 17.8858 27.4477C17.3857 26.9476 16.7074 26.6667 16.0002 26.6667C15.2929 26.6667 14.6146 26.9476 14.1145 27.4477C13.6144 27.9478 13.3335 28.6261 13.3335 29.3334C13.3388 33.8183 14.9586 38.1514 17.8966 41.54C20.8347 44.9285 24.8946 47.146 29.3335 47.7867V53.3334H24.0002C23.2929 53.3334 22.6146 53.6143 22.1145 54.1144C21.6144 54.6145 21.3335 55.2928 21.3335 56C21.3335 56.7073 21.6144 57.3855 22.1145 57.8856C22.6146 58.3857 23.2929 58.6667 24.0002 58.6667H40.0002C40.7074 58.6667 41.3857 58.3857 41.8858 57.8856C42.3859 57.3855 42.6668 56.7073 42.6668 56C42.6668 55.2928 42.3859 54.6145 41.8858 54.1144C41.3857 53.6143 40.7074 53.3334 40.0002 53.3334Z" fill="#211A36"/>
</svg>
