<svg width="64" height="64" viewBox="0 0 64 64" fill="#211A36" xmlns="http://www.w3.org/2000/svg">
<path d="M32.0002 40C34.8291 40 37.5422 38.8762 39.5426 36.8758C41.543 34.8754 42.6668 32.1623 42.6668 29.3333V16C42.6668 13.171 41.543 10.4579 39.5426 8.45751C37.5422 6.45712 34.8291 5.33331 32.0002 5.33331C29.1712 5.33331 26.4581 6.45712 24.4577 8.45751C22.4573 10.4579 21.3335 13.171 21.3335 16V29.3333C21.3335 32.1623 22.4573 34.8754 24.4577 36.8758C26.4581 38.8762 29.1712 40 32.0002 40Z" fill="#211A36"/>
<path d="M50.6668 29.3334C50.6668 28.6261 50.3859 27.9478 49.8858 27.4477C49.3857 26.9476 48.7074 26.6667 48.0002 26.6667C47.2929 26.6667 46.6146 26.9476 46.1145 27.4477C45.6144 27.9478 45.3335 28.6261 45.3335 29.3334C45.3335 32.8696 43.9287 36.261 41.4283 38.7614C38.9278 41.2619 35.5364 42.6667 32.0002 42.6667C28.4639 42.6667 25.0726 41.2619 22.5721 38.7614C20.0716 36.261 18.6668 32.8696 18.6668 29.3334C18.6668 28.6261 18.3859 27.9478 17.8858 27.4477C17.3857 26.9476 16.7074 26.6667 16.0002 26.6667C15.2929 26.6667 14.6146 26.9476 14.1145 27.4477C13.6144 27.9478 13.3335 28.6261 13.3335 29.3334C13.3388 33.8183 14.9586 38.1514 17.8966 41.54C20.8347 44.9285 24.8946 47.146 29.3335 47.7867V53.3334H23.7068C23.0774 53.3334 22.4737 53.5834 22.0286 54.0285C21.5835 54.4736 21.3335 55.0772 21.3335 55.7067V56.2934C21.3335 56.9228 21.5835 57.5265 22.0286 57.9716C22.4737 58.4166 23.0774 58.6667 23.7068 58.6667H40.2935C40.9229 58.6667 41.5266 58.4166 41.9717 57.9716C42.4168 57.5265 42.6668 56.9228 42.6668 56.2934V55.7067C42.6668 55.0772 42.4168 54.4736 41.9717 54.0285C41.5266 53.5834 40.9229 53.3334 40.2935 53.3334H34.6668V47.7867C39.1058 47.146 43.1656 44.9285 46.1037 41.54C49.0417 38.1514 50.6616 33.8183 50.6668 29.3334Z" fill="#211A36"/>
</svg>

