<svg width="40" height="34" viewBox="0 0 40 34" fill="none" xmlns="http://www.w3.org/2000/svg">
<path d="M39.9987 16.1947C40.0199 20.2325 38.4752 23.654 35.809 26.5442C31.8308 30.8582 26.7946 33.4297 21.0177 33.9184C13.9924 34.5135 8.0674 31.8358 3.47556 26.4379C2.67145 25.4816 1.99432 24.3553 1.4653 23.2289C-0.714235 18.6174 -0.58721 14.0696 2.69268 10.0956C6.60738 5.33525 11.2415 1.46748 17.6109 0.468657C21.6737 -0.168886 25.7366 -0.338908 29.6936 1.14869C35.9994 3.52886 40.0834 9.47928 39.9987 16.1947ZM16.7856 20.8488C16.8914 19.7862 17.0607 19.2549 16.9549 18.7449C16.9126 18.4686 16.4681 18.0861 16.1719 18.0649C15.5159 18.0011 15.0928 18.5324 15.3044 19.0849C15.516 19.6162 16.0662 19.9987 16.7856 20.8488ZM5.35893 15.1322C5.29545 15.8335 5.18964 16.1947 5.25313 16.556C5.27429 16.7473 5.59167 16.8748 5.76096 17.0448C5.88792 16.7685 6.16303 16.471 6.09955 16.2372C6.05723 15.9397 5.73982 15.6635 5.35893 15.1322ZM34.4547 12.5182C34.2854 11.9019 34.2854 11.4769 34.0737 11.2219C33.8833 10.9881 33.5024 10.9243 33.2061 10.7968C33.2273 11.1581 33.1216 11.5831 33.2909 11.8594C33.439 12.1357 33.8622 12.2207 34.4547 12.5182ZM22.118 28.8394C22.3085 28.7331 22.499 28.6268 22.6894 28.4993C22.4355 28.4356 22.1815 28.3718 21.9276 28.3506C21.8006 28.3506 21.6737 28.4568 21.5468 28.4993C21.7372 28.6056 21.9276 28.7331 22.118 28.8394Z" fill="#85E1D0"/>
</svg>
