<svg width="64" height="64" viewBox="0 0 64 64" fill="none" xmlns="http://www.w3.org/2000/svg">
<g clip-path="url(#clip0_402_79)">
<path d="M15.2502 10.1125L9.51149 1.36C8.60236 -0.0262453 6.74399 -0.41375 5.35524 0.496754C3.97149 1.39913 3.57649 3.258 4.48974 4.64925L13.206 17.9493C12.1076 24.1755 11.9974 30.0968 11.9974 31.9993C11.9974 31.9995 11.9974 31.999 11.9974 31.9993C12.0002 36.5625 12.5752 64 26.0377 64L46.0502 64C49.834 64 53.2602 60.5625 55.7815 55.1125L43.044 55.1125C41.3852 55.1125 40.0402 53.7687 40.0402 52.1125C40.0402 50.4562 41.3852 49.225 43.044 49.225L57.9065 49.225C59.0502 44.875 59.7877 40.1125 60.0002 35.1125L47.0502 35.1125C45.3915 35.1125 44.0465 33.7687 44.0465 32.1125C44.0465 32.1122 44.0465 32.1127 44.0465 32.1125C44.0465 30.4563 45.3915 29.1125 47.0502 29.1125L60.0002 29.1125C59.7917 23.9962 59.0484 19.2437 57.9102 15.225L43.0477 15.225C41.389 15.225 40.044 13.8813 40.044 12.225C40.044 10.5688 41.389 9.225 43.0477 9.225L55.7852 9.225C53.264 3.66375 49.8377 0.337503 46.054 0.337504L26.0377 0.337504C20.6127 0.112506 17.3002 4.4875 15.2502 10.1125ZM34.0627 32.1125C34.0627 46.475 30.4415 58 26.014 58C21.5865 58 18.1265 46.36 18.1265 32.1125C18.1265 32.1123 18.1265 32.1128 18.1265 32.1125C18.1265 29.925 18.2157 27.8038 18.3722 25.7738L23.3877 33.65C24.2969 35.0363 26.1552 35.4238 27.544 34.5133C28.5377 33.9375 29.0127 32.975 29.0127 32C29.0127 31.4375 28.8546 30.8673 28.5224 30.36L19.5636 16.6975C21.0199 10.2262 23.3611 6.01 26.0224 6.01C30.4502 6.1125 34.0627 17.6375 34.0627 32.1125Z" fill="#211A36"/>
</g>
<defs>
<clipPath id="clip0_402_79">
<rect width="64" height="64" fill="white" transform="translate(0 64) rotate(-90)"/>
</clipPath>
</defs>
</svg>
