<svg width="68" height="68" viewBox="0 0 68 68" fill="none" xmlns="http://www.w3.org/2000/svg">
<path d="M33.004 39.8004C32.6903 40.1251 32.3152 40.3842 31.9004 40.5623C31.4855 40.7405 31.0394 40.8343 30.5879 40.8383C30.1365 40.8422 29.6888 40.7562 29.2709 40.5852C28.8531 40.4142 28.4735 40.1618 28.1542 39.8425C27.835 39.5233 27.5825 39.1437 27.4116 38.7258C27.2406 38.308 27.1546 37.8603 27.1585 37.4088C27.1625 36.9574 27.2562 36.5112 27.4344 36.0964C27.6126 35.6816 27.8717 35.3064 28.1964 34.9928C28.8376 34.3735 29.6965 34.0308 30.5879 34.0385C31.4794 34.0463 32.3322 34.4038 32.9626 35.0342C33.593 35.6646 33.9505 36.5174 33.9583 37.4088C33.966 38.3003 33.6233 39.1592 33.004 39.8004ZM51.874 7.854C52.5669 7.1622 53.506 6.77365 54.4852 6.77365C55.4643 6.77365 56.4035 7.1622 57.0964 7.854L60.1428 10.9004C60.8346 11.5933 61.2231 12.5325 61.2231 13.5116C61.2231 14.4907 60.8346 15.4299 60.1428 16.1228L45.2712 30.9944C45.8971 31.8428 46.33 32.8179 46.5394 33.8512C46.7488 34.8845 46.7298 35.9511 46.4836 36.9763C46.2374 38.0015 45.7701 38.9604 45.1143 39.786C44.4585 40.6115 43.6301 41.2837 42.6872 41.7554L40.3854 42.9046C39.9817 43.1064 39.6557 43.4355 39.4578 43.8411C39.2599 44.2467 39.2011 44.7062 39.2906 45.1486L39.328 45.3458C39.7961 47.685 39.5927 50.1089 38.7414 52.3375C37.89 54.566 36.4255 56.5081 34.517 57.9394C31.3802 60.2918 27.5002 61.4338 23.5893 61.1559C19.6783 60.8779 15.9988 59.1987 13.2262 56.4264L11.5704 54.7706C8.79744 51.9984 7.11776 48.3188 6.83982 44.4076C6.56188 40.4964 7.70434 36.6163 10.0574 33.4798C11.4887 31.5713 13.4308 30.1067 15.6593 29.2554C17.8878 28.4041 20.3118 28.2007 22.651 28.6688L22.8516 28.7096C23.2938 28.798 23.7529 28.7383 24.1578 28.5398C24.5628 28.3413 24.8911 28.0151 25.0922 27.6114L26.2448 25.3096C26.7166 24.3672 27.3886 23.5393 28.2139 22.8839C29.0392 22.2284 29.9977 21.7613 31.0225 21.5151C32.0472 21.269 33.1134 21.2498 34.1463 21.4589C35.1793 21.668 36.154 22.1003 37.0024 22.7256L51.874 7.854ZM54.696 10.2612C54.6405 10.2058 54.5653 10.1746 54.4869 10.1746C54.4085 10.1746 54.3332 10.2058 54.2778 10.2612L50.3168 14.2222L53.778 17.68L57.739 13.719C57.7663 13.6918 57.788 13.6595 57.8028 13.6239C57.8176 13.5883 57.8253 13.5502 57.8253 13.5116C57.8253 13.4731 57.8176 13.4349 57.8028 13.3993C57.788 13.3637 57.7663 13.3314 57.739 13.3042L54.6926 10.2612H54.696ZM51.3742 20.0872L47.9096 16.626L38.257 26.2752C37.9382 26.5939 37.5059 26.7729 37.0551 26.7729C36.6043 26.7729 36.172 26.5939 35.8532 26.2752L35.4112 25.8332C34.9822 25.4045 34.4574 25.0839 33.8802 24.8978C33.303 24.7117 32.6898 24.6653 32.0912 24.7626C31.4925 24.8599 30.9256 25.098 30.437 25.4573C29.9484 25.8167 29.5522 26.2869 29.281 26.8294L28.1284 29.1346C27.593 30.2048 26.7204 31.0693 25.6451 31.5946C24.5699 32.1199 23.3517 32.277 22.1784 32.0416L21.9812 32.0042C20.2711 31.6617 18.4991 31.8101 16.8698 32.4322C15.2405 33.0543 13.8206 34.1247 12.774 35.5198C10.9119 38.0015 10.0077 41.0718 10.2275 44.1667C10.4474 47.2616 11.7765 50.1732 13.9708 52.3668L15.6266 54.0226C17.8205 56.2162 20.7321 57.5449 23.8268 57.7648C26.9214 57.9846 29.9916 57.0808 32.4736 55.2194C33.8693 54.1732 34.9404 52.7534 35.5631 51.1241C36.1858 49.4948 36.3347 47.7226 35.9926 46.0122L35.9518 45.815C35.7167 44.6413 35.8742 43.4228 36.4002 42.3475C36.9262 41.2723 37.7913 40.3999 38.8622 39.865L41.164 38.7124C43.4998 37.5428 44.0064 34.4284 42.1602 32.5788L41.7182 32.1402C41.3995 31.8214 41.2204 31.3891 41.2204 30.9383C41.2204 30.4875 41.3995 30.0552 41.7182 29.7364L51.3674 20.0872H51.3742Z" fill="#211A36"/>
</svg>
