<svg width="86" height="80" viewBox="0 0 86 80" fill="none" xmlns="http://www.w3.org/2000/svg">
<path d="M50.0488 23.6546C51.1541 19.8495 52.2708 19.0131 54.5878 20.245C59.497 22.903 63.5383 26.5763 66.3895 31.3962C67.9236 34.0451 66.8163 36.7559 63.9656 37.7902C62.6389 38.2584 61.2036 38.4877 59.8101 38.7058C55.603 39.3449 51.3959 39.9839 47.1666 40.5396C46.2163 40.6609 45.1157 40.5545 44.2665 40.1347C42.4096 39.2037 42.6066 36.1789 44.625 35.1226C46.56 34.0886 48.6563 33.3242 50.7762 32.3969C47.1463 28.9259 43.0969 28.316 39.3854 30.4753C37.2032 31.7545 35.6688 33.6192 34.4584 35.7768C27.3566 48.3213 33.2369 63.1419 42.5972 69.2514C52.6136 75.8101 58.6424 75.5529 67.9479 67.9129C72.3214 64.302 75.2911 59.9511 76.9347 54.4819C78.875 47.9498 79.8315 41.4139 79.2455 34.6222C78.4443 25.5199 74.1276 18.7254 66.4991 13.5805C55.3261 6.03661 43.4178 5.43836 30.9182 8.73051C26.0571 10.0146 22.2209 12.8778 19.0675 16.8758C14.2271 23.0031 10.7864 29.9384 7.7987 37.0648C5.54651 42.4295 5.1884 48.1118 5.91968 53.859C6.65509 59.5379 8.18143 60.7365 14.3189 60.7183C14.7281 62.083 13.689 62.541 12.8208 62.8861C8.73788 64.4079 4.97164 63.1856 2.902 59.4517C2.01324 57.8806 1.4245 56.0949 1.04002 54.3213C-0.45499 46.9695 0.0620723 39.792 3.04146 32.8019C6.21649 25.2899 9.78766 18.0067 15.1171 11.7033C18.4747 7.71747 22.5123 4.68841 27.4733 3.10937C37.3649 0.00418017 47.3924 -0.836082 57.4487 2.36031C65.1173 4.813 71.7587 9.10586 77.3255 14.8941C80.3216 17.9992 82.262 21.8349 83.3871 26.0462C86.8778 39.0287 85.1451 51.6051 78.9558 63.3011C75.1733 70.4623 68.6106 75.2426 61.02 78.2656C57.3498 79.7436 53.505 79.816 49.6472 78.7524C35.6027 74.8403 26.265 64.3005 25.1254 48.8316C24.5807 41.3585 26.675 34.3158 31.9144 28.5952C36.0693 24.0822 41.0634 21.958 47.2461 23.447C48.0702 23.6054 48.8649 23.5706 50.0488 23.6546Z" fill="#211A36"/>
</svg>
