<svg width="68" height="68" viewBox="0 0 68 68" fill="none" xmlns="http://www.w3.org/2000/svg">
<path d="M53.8333 8.5H14.1667C11.05 8.5 8.5 11.05 8.5 14.1667V53.8333C8.5 56.95 11.05 59.5 14.1667 59.5H53.8333C56.95 59.5 59.5 56.95 59.5 53.8333V14.1667C59.5 11.05 56.95 8.5 53.8333 8.5ZM39.6667 41.0833H40.375V53.8333H27.625V41.0833H28.3333C29.8917 41.0833 31.1667 39.8083 31.1667 38.25V14.1667H36.8333V38.25C36.8333 39.8083 38.1083 41.0833 39.6667 41.0833ZM14.1667 14.1667H19.8333V38.25C19.8333 39.8083 21.1083 41.0833 22.6667 41.0833H23.375V53.8333H14.1667V14.1667ZM53.8333 53.8333H44.625V41.0833H45.3333C46.8917 41.0833 48.1667 39.8083 48.1667 38.25V14.1667H53.8333V53.8333Z" fill="#211A36"/>
</svg>
