<svg width="44" height="45" viewBox="0 0 44 45" fill="none" xmlns="http://www.w3.org/2000/svg">
<path d="M8.49627 3.50482C13.5193 8.87422 19.3433 10.7578 25.2107 12.4682C27.3325 13.0744 29.2161 12.4033 30.71 10.7362C31.7926 9.52372 32.8751 8.31129 34.0875 7.22875C35.4299 6.0596 37.3135 5.95135 38.6342 6.79573C39.8033 7.53186 40.4961 9.56699 39.9116 11.1908C39.5219 12.3166 39.0889 13.6157 38.2661 14.4385C35.4515 17.2964 35.603 20.6522 36.2742 24.138C37.0104 28.2084 38.8291 31.8457 40.7993 35.418C41.5787 36.847 42.4015 38.2327 43.0943 39.705C43.7438 41.0906 43.7438 42.5196 42.6396 43.7104C41.5571 44.8795 40.0632 44.9445 38.6559 44.5764C37.7032 44.3166 36.7722 43.8186 35.9711 43.2341C34.1525 41.935 32.4637 40.4627 30.6451 39.1204C25.9252 35.6562 18.6505 35.9593 14.3203 39.7266C12.9347 40.939 11.6356 42.2381 10.185 43.3423C8.75609 44.4248 6.82911 44.4032 5.63832 43.5155C4.29597 42.5195 3.88461 40.2895 4.83725 38.5142C5.83318 36.7388 7.06731 35.115 8.06325 33.3396C12.0903 26.2814 11.549 19.8944 6.3528 13.5724C5.07541 11.9919 3.58152 10.5846 2.26082 9.04739C0.983422 7.59679 0.485496 5.88637 0.896861 3.95945C1.48143 1.2531 4.33927 0.0406629 6.50435 1.64282C7.54359 2.33565 8.30141 3.30996 8.49627 3.50482Z" fill="#211A36"/>
</svg>
